<?xml version="1.0" standalone="no"?>
<!DOCTYPE svg PUBLIC "-//W3C//DTD SVG 20010904//EN"
 "http://www.w3.org/TR/2001/REC-SVG-20010904/DTD/svg10.dtd">
<svg version="1.0" xmlns="http://www.w3.org/2000/svg"
 width="372.000000pt" height="372.000000pt" viewBox="0 0 372.000000 372.000000"
 preserveAspectRatio="xMidYMid meet">

<g transform="translate(0.000000,372.000000) scale(0.100000,-0.100000)"
fill="#000000" stroke="none">
<path d="M567 3155 c-16 -8 -43 -27 -60 -41 -18 -15 -61 -40 -97 -56 -36 -16
-81 -40 -100 -53 -19 -13 -51 -27 -70 -30 -49 -8 -103 -23 -118 -34 -10 -6 12
-33 84 -105 111 -108 100 -104 247 -82 l89 13 39 -53 c47 -61 53 -64 125 -64
98 0 118 -31 65 -99 -42 -53 -48 -97 -20 -160 43 -102 216 -227 346 -251 28
-5 111 -12 185 -15 164 -8 235 -20 261 -42 11 -10 48 -61 83 -114 93 -142 154
-187 299 -224 156 -40 218 -19 302 105 149 221 341 433 423 469 25 11 110 35
190 55 80 19 201 53 270 75 165 53 194 57 225 37 20 -13 25 -25 25 -59 0 -23
-7 -52 -15 -64 -16 -23 -83 -43 -148 -43 -43 0 -206 -29 -277 -50 -19 -5 -57
-10 -83 -10 -80 0 -139 -44 -162 -123 -29 -98 13 -123 194 -114 129 7 228 29
282 62 70 45 143 134 246 305 29 47 72 106 96 133 54 59 117 164 117 195 0 33
-53 53 -240 92 -279 58 -340 84 -340 144 0 65 -52 69 -220 15 -111 -35 -229
-48 -284 -29 -21 7 -72 36 -115 65 -143 98 -160 101 -351 61 -179 -37 -292
-49 -465 -50 -151 -1 -165 1 -244 28 -82 28 -87 28 -217 21 -156 -8 -216 2
-319 51 -65 31 -149 54 -199 54 -11 0 -34 -7 -49 -15z m2057 -430 c9 -14 14
-29 11 -34 -2 -5 6 -12 20 -15 28 -7 32 -21 38 -112 l3 -61 -65 -7 c-52 -4
-68 -2 -83 11 -25 23 -23 68 4 87 18 13 19 16 5 16 -11 0 -17 8 -17 23 0 28
17 47 44 47 19 0 19 0 -1 23 -36 40 -37 47 -5 47 21 0 35 -8 46 -25z m-1514
-5 c0 -11 -7 -20 -15 -20 -8 0 -15 9 -15 20 0 11 7 20 15 20 8 0 15 -9 15 -20z
m1400 -5 c0 -19 -6 -25 -22 -26 l-23 -2 23 -4 c21 -4 22 -9 22 -94 l0 -89 -30
0 -30 0 1 120 2 120 28 0 c24 0 29 -4 29 -25z m-282 -12 c2 -13 8 -23 13 -23
12 0 12 -37 -1 -45 -5 -3 -10 -26 -10 -51 0 -24 5 -44 10 -44 6 0 10 -12 10
-26 0 -24 -3 -26 -32 -20 -41 8 -48 20 -48 83 0 28 -4 55 -10 58 -5 3 -10 15
-10 26 0 10 5 19 10 19 6 0 10 8 10 18 0 25 10 33 35 30 12 -2 21 -12 23 -25z
m-586 -27 c17 11 68 6 84 -7 10 -8 14 -34 14 -90 l0 -79 -30 0 -30 0 0 66 c0
57 -2 65 -17 62 -15 -3 -19 -16 -21 -66 -3 -58 -4 -62 -27 -62 -23 0 -24 4
-27 63 -3 54 -5 62 -23 62 -18 0 -20 -8 -23 -62 -3 -59 -4 -63 -27 -63 -25 0
-25 1 -25 90 l0 90 40 -2 c22 -1 43 1 46 5 3 3 17 1 31 -4 14 -5 29 -6 35 -3z
m285 -23 c21 -27 26 -79 11 -110 -30 -63 -123 -69 -158 -10 -51 83 13 171 105
145 17 -4 36 -15 42 -25z m481 14 c22 -17 14 -47 -12 -47 -14 0 -28 5 -31 10
-8 13 -35 13 -35 1 0 -5 15 -13 33 -16 81 -18 92 -96 16 -120 -47 -15 -119 20
-119 57 0 12 58 10 65 -2 3 -5 15 -10 26 -10 10 0 19 5 19 10 0 6 -9 10 -20
10 -41 0 -80 29 -80 58 0 15 4 32 8 39 19 30 97 36 130 10z m-1298 -87 c0 -60
-3 -79 -15 -84 -13 -4 -15 9 -15 91 0 84 2 94 15 83 11 -9 15 -33 15 -90z m85
90 c10 16 56 12 77 -7 24 -22 27 -163 3 -163 -12 0 -15 14 -15 70 0 66 -1 70
-25 76 -41 10 -55 -10 -55 -82 0 -50 -3 -64 -15 -64 -12 0 -15 16 -15 83 0 87
5 104 26 86 8 -7 14 -7 19 1z m251 -16 c13 -19 14 -28 5 -37 -9 -9 -16 -7 -30
12 -10 13 -25 22 -36 20 -30 -6 -29 -28 2 -40 67 -27 73 -32 73 -60 0 -32 -32
-59 -70 -59 -34 0 -70 26 -70 51 0 25 21 24 43 -1 20 -24 40 -26 57 -5 12 15
2 22 -72 48 -27 9 -34 54 -13 77 28 30 90 27 111 -6z m671 14 c9 -7 13 -36 13
-89 0 -77 -1 -79 -25 -79 -23 0 -24 4 -27 62 -2 52 -6 63 -22 66 -26 5 -36
-15 -36 -75 0 -50 -2 -53 -25 -53 -25 0 -25 1 -25 89 l0 89 67 1 c37 0 73 -5
80 -11z"/>
<path d="M2603 2633 c-18 -6 -16 -23 1 -23 17 0 30 16 19 23 -5 2 -14 2 -20 0z"/>
<path d="M2597 2563 c-12 -11 -8 -23 7 -23 7 0 19 7 26 15 10 12 9 15 -7 15
-11 0 -23 -3 -26 -7z"/>
<path d="M1827 2624 c-13 -13 -7 -61 9 -75 24 -20 49 1 49 42 0 29 -4 34 -25
37 -14 2 -29 0 -33 -4z"/>
<path d="M1157 1254 c-4 -4 -7 -77 -7 -161 l0 -154 33 3 32 3 0 155 0 155 -25
3 c-14 2 -29 0 -33 -4z"/>
<path d="M1960 1235 c0 -21 5 -25 30 -25 25 0 30 4 30 25 0 21 -5 25 -30 25
-25 0 -30 -4 -30 -25z"/>
<path d="M1820 1206 c0 -25 -4 -36 -15 -36 -8 0 -15 -6 -15 -14 0 -8 7 -16 15
-20 12 -4 15 -24 15 -89 0 -51 5 -88 12 -95 19 -19 88 -16 88 4 0 9 -9 18 -20
21 -18 5 -20 14 -20 84 0 72 2 79 20 79 11 0 20 7 20 15 0 8 -9 15 -19 15 -15
0 -21 8 -23 33 -2 27 -8 33 -30 35 -26 3 -28 1 -28 -32z"/>
<path d="M2100 1209 c0 -22 -5 -32 -20 -36 -11 -3 -20 -11 -20 -18 0 -7 9 -15
20 -18 18 -5 20 -14 20 -95 0 -98 3 -102 61 -102 34 0 40 24 9 40 -17 9 -20
21 -20 81 0 62 2 71 20 76 11 3 20 11 20 18 0 7 -9 15 -20 18 -15 4 -20 14
-20 36 0 26 -4 31 -25 31 -21 0 -25 -5 -25 -31z"/>
<path d="M2530 1209 c0 -22 -5 -32 -20 -36 -26 -7 -26 -29 0 -36 17 -4 20 -15
22 -98 l3 -94 43 -3 c36 -3 42 0 42 16 0 11 -9 22 -20 25 -18 5 -20 14 -20 77
0 63 2 72 20 77 11 3 20 11 20 18 0 7 -9 15 -20 18 -15 4 -20 14 -20 36 0 26
-4 31 -25 31 -21 0 -25 -5 -25 -31z"/>
<path d="M1362 1164 c-12 -8 -22 -10 -22 -5 0 6 -13 11 -30 11 l-30 0 0 -115
0 -115 30 0 30 0 0 85 c0 79 2 86 24 100 19 13 29 14 45 6 18 -10 21 -23 23
-99 3 -87 3 -87 31 -90 l27 -3 0 98 c0 105 -3 114 -37 132 -30 15 -64 14 -91
-5z"/>
<path d="M1595 1168 c-45 -24 -59 -72 -30 -102 8 -8 40 -22 70 -31 57 -16 79
-40 54 -56 -24 -15 -58 -10 -76 11 -18 20 -73 28 -73 11 0 -6 11 -22 24 -38
21 -25 31 -28 86 -28 55 0 65 3 86 28 13 16 24 36 24 46 0 28 -38 60 -80 67
-50 8 -75 26 -67 48 8 21 65 22 73 1 5 -13 64 -23 64 -11 0 50 -100 85 -155
54z"/>
<path d="M1960 1055 l0 -115 30 0 30 0 0 115 0 115 -30 0 -30 0 0 -115z"/>
<path d="M2240 1077 c0 -116 11 -137 74 -137 27 0 48 6 57 16 11 14 13 14 21
0 5 -9 20 -16 33 -16 l25 0 0 115 0 115 -30 0 -30 0 0 -78 c0 -92 -12 -115
-55 -110 l-30 3 -3 93 -3 92 -29 0 -30 0 0 -93z"/>
<path d="M2575 820 c16 -16 37 -30 47 -30 16 0 17 3 7 23 -15 28 -28 37 -58
37 l-25 0 29 -30z"/>
<path d="M1060 678 l0 -158 25 0 25 0 0 127 c0 74 4 123 9 118 5 -6 16 -46 26
-90 33 -159 32 -157 68 -153 l31 3 27 118 c14 64 29 120 33 124 3 3 6 -51 6
-120 l0 -127 30 0 30 0 0 155 0 155 -40 0 c-22 0 -43 1 -47 3 -8 3 -15 -22
-44 -146 -12 -54 -25 -94 -29 -90 -4 4 -17 53 -29 108 -13 55 -24 105 -26 111
-2 7 -24 14 -49 16 l-46 3 0 -157z"/>
<path d="M2397 834 c-4 -4 -7 -16 -7 -26 0 -13 8 -18 31 -18 26 0 30 3 27 23
-3 22 -36 36 -51 21z"/>
<path d="M2000 788 c0 -21 -6 -31 -20 -35 -11 -3 -20 -13 -20 -23 0 -10 9 -20
20 -23 18 -5 20 -14 20 -91 0 -93 8 -106 64 -106 32 0 37 35 6 43 -18 5 -20
14 -20 81 0 69 2 76 20 76 13 0 20 7 20 20 0 13 -7 20 -20 20 -15 0 -20 7 -20
29 0 23 -5 30 -25 33 -22 5 -25 2 -25 -24z"/>
<path d="M1492 749 c-60 -18 -92 -114 -61 -183 29 -62 150 -76 196 -22 64 74
22 196 -72 210 -16 3 -45 0 -63 -5z m74 -47 c16 -10 34 -48 34 -71 0 -62 -49
-97 -95 -67 -21 14 -25 24 -25 63 0 29 6 53 17 65 16 18 49 23 69 10z"/>
<path d="M2190 747 c-45 -16 -68 -56 -52 -91 8 -19 26 -30 74 -44 48 -15 63
-24 63 -38 0 -25 -66 -32 -85 -10 -7 9 -25 16 -41 16 -26 0 -28 -2 -18 -24 14
-30 49 -46 102 -46 54 0 89 18 101 52 15 43 -12 72 -83 92 -46 13 -61 21 -61
35 0 11 9 21 22 24 23 6 58 -8 58 -23 0 -6 14 -10 31 -10 37 0 37 24 -1 50
-35 25 -69 30 -110 17z"/>
<path d="M1710 635 l0 -115 30 0 30 0 0 79 c0 98 20 126 74 105 13 -5 16 -23
16 -95 l0 -89 30 0 30 0 0 99 c0 92 -2 101 -22 115 -29 21 -92 20 -112 0 -15
-14 -17 -14 -22 0 -3 9 -17 16 -30 16 -24 0 -24 0 -24 -115z"/>
<path d="M2397 743 c-4 -3 -7 -55 -7 -115 l0 -108 30 0 30 0 0 115 c0 114 0
115 -23 115 -13 0 -27 -3 -30 -7z"/>
<path d="M2536 727 c-14 -15 -26 -31 -26 -37 0 -16 57 -12 64 5 7 20 65 20 73
-1 8 -23 -9 -35 -64 -45 -53 -10 -83 -37 -83 -75 0 -54 77 -84 127 -49 14 10
24 12 28 5 3 -5 18 -10 33 -10 l27 0 -5 100 c-3 59 -10 104 -17 111 -7 7 -39
15 -72 17 -54 4 -62 2 -85 -21z m114 -119 c0 -29 -9 -42 -38 -57 -18 -10 -27
-10 -38 0 -31 25 -12 63 36 72 14 2 28 5 33 6 4 0 7 -9 7 -21z"/>
</g>
</svg>
